<?xml version="1.0" encoding="UTF-8" standalone="no"?>
<!-- Created with Inkscape (http://www.inkscape.org/) -->

<svg
   xmlns:dc="http://purl.org/dc/elements/1.1/"
   xmlns:cc="http://creativecommons.org/ns#"
   xmlns:rdf="http://www.w3.org/1999/02/22-rdf-syntax-ns#"
   xmlns:svg="http://www.w3.org/2000/svg"
   xmlns="http://www.w3.org/2000/svg"
   xmlns:sodipodi="http://sodipodi.sourceforge.net/DTD/sodipodi-0.dtd"
   xmlns:inkscape="http://www.inkscape.org/namespaces/inkscape"
   width="151.68256mm"
   height="150.14914mm"
   viewBox="0 0 151.68255 150.14914"
   version="1.1"
   id="svg8"
   sodipodi:docname="logo-only.svg"
   inkscape:version="0.92.4 (5da689c313, 2019-01-14)">
  <defs
     id="defs2">
    <clipPath
       clipPathUnits="userSpaceOnUse"
       id="clipPath16">
      <path
         d="M 0,192 H 192 V 0 H 0 Z"
         id="path18"
         inkscape:connector-curvature="0" />
    </clipPath>
    <clipPath
       clipPathUnits="userSpaceOnUse"
       id="clipPath26">
      <path
         d="M -4.88281e-4,192 H 192 V -4.88281e-4 H -4.88281e-4 Z"
         id="path28"
         inkscape:connector-curvature="0" />
    </clipPath>
    <clipPath
       clipPathUnits="userSpaceOnUse"
       id="clipPath34">
      <path
         d="M -4.88281e-4,192 H 192 V -4.88281e-4 H -4.88281e-4 Z"
         id="path36"
         inkscape:connector-curvature="0" />
    </clipPath>
    <clipPath
       clipPathUnits="userSpaceOnUse"
       id="clipPath38">
      <path
         d="M 0,192 H 192 V 0 H 0 Z"
         id="path40"
         inkscape:connector-curvature="0" />
    </clipPath>
    <clipPath
       clipPathUnits="userSpaceOnUse"
       id="clipPath42">
      <path
         d="M 0,192 H 192 V 0 H 0 Z"
         id="path44"
         inkscape:connector-curvature="0" />
    </clipPath>
    <clipPath
       clipPathUnits="userSpaceOnUse"
       id="clipPath116">
      <path
         d="M 0,192 H 192 V -4.88281e-4 H 0 Z"
         id="path118"
         inkscape:connector-curvature="0" />
    </clipPath>
    <clipPath
       clipPathUnits="userSpaceOnUse"
       id="clipPath120">
      <path
         d="M 0,192 H 192 V 4.88281e-4 H 0 Z"
         id="path122"
         inkscape:connector-curvature="0" />
    </clipPath>
    <clipPath
       clipPathUnits="userSpaceOnUse"
       id="clipPath124">
      <path
         d="M 192,192 H 0 V 0 h 192 z"
         id="path126"
         inkscape:connector-curvature="0" />
    </clipPath>
  </defs>
  <sodipodi:namedview
     id="base"
     pagecolor="#3d3d3d"
     bordercolor="#666666"
     borderopacity="1.0"
     inkscape:pageopacity="0"
     inkscape:pageshadow="2"
     inkscape:zoom="0.49497474"
     inkscape:cx="-192.6803"
     inkscape:cy="237.87441"
     inkscape:document-units="px"
     inkscape:current-layer="layer2"
     showgrid="false"
     units="mm"
     inkscape:showpageshadow="false"
     inkscape:window-width="1366"
     inkscape:window-height="705"
     inkscape:window-x="-8"
     inkscape:window-y="-8"
     inkscape:window-maximized="1"
     inkscape:object-paths="true"
     fit-margin-top="0"
     fit-margin-left="0"
     fit-margin-right="0"
     fit-margin-bottom="0" />
  <metadata
     id="metadata5">
    <rdf:RDF>
      <cc:Work
         rdf:about="">
        <dc:format>image/svg+xml</dc:format>
        <dc:type
           rdf:resource="http://purl.org/dc/dcmitype/StillImage" />
        <dc:title></dc:title>
      </cc:Work>
    </rdf:RDF>
  </metadata>
  <g
     inkscape:groupmode="layer"
     id="layer2"
     inkscape:label="Layer 2"
     transform="translate(-29.1587,91.282943)">
    <g
       id="g6678"
       transform="translate(792.65276,-237.50395)">
      <path
         inkscape:connector-curvature="0"
         id="path6638"
         d="m -687.31547,152.53653 -16.98554,9.86968 v 19.204 l 15.52774,-8.98033 a 2.9187589,2.9239263 0 0 1 1.52654,-0.38809 2.9187589,2.9239263 0 0 1 1.39009,0.38809 l 15.52721,8.98033 v -19.204 z"
         style="opacity:1;fill:#00002f;fill-opacity:1;fill-rule:nonzero;stroke:none;stroke-width:1.32291651;stroke-linecap:round;stroke-linejoin:round;stroke-miterlimit:4;stroke-dasharray:none;stroke-dashoffset:0;stroke-opacity:1;paint-order:stroke fill markers" />
      <path
         inkscape:connector-curvature="0"
         id="path6640"
         d="m -687.3165,178.53959 -48.20947,27.88306 v 55.7661 l 48.20947,27.88306 48.20996,-27.88306 v -55.7661 z"
         style="opacity:1;fill:#00002f;fill-opacity:1;fill-rule:nonzero;stroke:none;stroke-width:1.32291651;stroke-linecap:round;stroke-linejoin:round;stroke-miterlimit:4;stroke-dasharray:none;stroke-dashoffset:0;stroke-opacity:1;paint-order:stroke fill markers" />
      <path
         inkscape:connector-curvature="0"
         id="path6642"
         d="m -738.44361,184.99346 -16.985,9.86968 v 19.74092 l 14.06631,8.17418 v -18.04386 a 2.9187589,2.9239263 0 0 1 1.45986,-2.5337 l 15.57269,-9.00617 z"
         style="opacity:1;fill:#00002f;fill-opacity:1;fill-rule:nonzero;stroke:none;stroke-width:1.32291651;stroke-linecap:round;stroke-linejoin:round;stroke-miterlimit:4;stroke-dasharray:none;stroke-dashoffset:0;stroke-opacity:1;paint-order:stroke fill markers" />
      <path
         inkscape:connector-curvature="0"
         id="path6644"
         d="m -634.61997,184.99346 -14.89522,8.65426 14.78772,8.55296 a 2.9187589,2.9239263 0 0 1 1.45986,2.5337 v 18.95491 l 15.63418,-9.08523 v -19.74092 z"
         style="opacity:1;fill:#00002f;fill-opacity:1;fill-rule:nonzero;stroke:none;stroke-width:1.32291651;stroke-linecap:round;stroke-linejoin:round;stroke-miterlimit:4;stroke-dasharray:none;stroke-dashoffset:0;stroke-opacity:1;paint-order:stroke fill markers" />
      <path
         inkscape:connector-curvature="0"
         id="path6646"
         d="m -741.3623,245.97166 -16.30752,9.47642 v 19.74091 l 16.98398,9.87124 16.47753,-9.57513 -15.69413,-9.07748 a 2.9187589,2.9239263 0 0 1 -1.45986,-2.5306 z"
         style="opacity:1;fill:#00002f;fill-opacity:1;fill-rule:nonzero;stroke:none;stroke-width:1.32291651;stroke-linecap:round;stroke-linejoin:round;stroke-miterlimit:4;stroke-dasharray:none;stroke-dashoffset:0;stroke-opacity:1;paint-order:stroke fill markers" />
      <path
         inkscape:connector-curvature="0"
         id="path6648"
         d="m -633.26761,247.66664 v 16.21038 a 2.9187589,2.9239263 0 0 1 -1.45986,2.5306 l -17.35915,10.0397 v 5.2e-4 l 0.20309,-0.11782 15.02182,8.73022 16.98655,-9.87124 v -19.74091 z"
         style="opacity:1;fill:#00002f;fill-opacity:1;fill-rule:nonzero;stroke:none;stroke-width:1.32291651;stroke-linecap:round;stroke-linejoin:round;stroke-miterlimit:4;stroke-dasharray:none;stroke-dashoffset:0;stroke-opacity:1;paint-order:stroke fill markers" />
      <g
         id="g6654"
         transform="translate(-172.35714,278.19048)">
        <path
           inkscape:connector-curvature="0"
           id="path6650"
           d="m -514.88984,-105.94886 a 2.918759,2.9239263 0 0 0 -1.52625,0.388 l -51.12915,29.57121 a 2.918759,2.9239263 0 0 0 -1.45977,2.5338 v 59.142302 a 2.918759,2.9239263 0 0 0 1.45977,2.530901 l 51.12915,29.571197 a 2.918759,2.9239263 0 0 0 2.91661,0 l 51.12917,-29.571197 a 2.918759,2.9239263 0 0 0 1.45977,-2.530901 V -73.45585 a 2.918759,2.9239263 0 0 0 -1.45977,-2.5338 l -51.12917,-29.57121 a 2.918759,2.9239263 0 0 0 -1.39036,-0.388 z m -0.0694,6.298204 48.20963,27.882906 v 55.766001 l -48.20963,27.883001 -48.20965,-27.883001 V -71.76775 Z"
           style="color:#000000;font-style:normal;font-variant:normal;font-weight:normal;font-stretch:normal;font-size:medium;line-height:normal;font-family:sans-serif;font-variant-ligatures:normal;font-variant-position:normal;font-variant-caps:normal;font-variant-numeric:normal;font-variant-alternates:normal;font-feature-settings:normal;text-indent:0;text-align:start;text-decoration:none;text-decoration-line:none;text-decoration-style:solid;text-decoration-color:#000000;letter-spacing:normal;word-spacing:normal;text-transform:none;writing-mode:lr-tb;direction:ltr;text-orientation:mixed;dominant-baseline:auto;baseline-shift:baseline;text-anchor:start;white-space:normal;shape-padding:0;clip-rule:nonzero;display:inline;overflow:visible;visibility:visible;opacity:1;isolation:auto;mix-blend-mode:normal;color-interpolation:sRGB;color-interpolation-filters:linearRGB;solid-color:#000000;solid-opacity:1;vector-effect:none;fill:#21aba5;fill-opacity:1;fill-rule:nonzero;stroke:none;stroke-width:3.17500019;stroke-linecap:round;stroke-linejoin:round;stroke-miterlimit:4;stroke-dasharray:none;stroke-dashoffset:0;stroke-opacity:1;paint-order:stroke fill markers;color-rendering:auto;image-rendering:auto;shape-rendering:auto;text-rendering:auto;enable-background:accumulate" />
        <path
           inkscape:connector-curvature="0"
           id="path6652"
           d="m -514.88885,-85.717946 a 2.9118515,2.9308623 0 0 0 -1.52531,0.3904 l -33.47339,19.451796 a 2.9118515,2.9308623 0 0 0 -1.45528,2.5391 v 38.903402 a 2.9118515,2.9308623 0 0 0 1.45528,2.537198 l 33.47339,19.4517023 a 2.9118515,2.9308623 0 0 0 2.91246,0 l 33.47151,-19.4517023 a 2.9118515,2.9308623 0 0 0 1.45528,-2.537198 V -63.33665 a 2.9118515,2.9308623 0 0 0 -1.45528,-2.5391 l -33.47151,-19.451796 a 2.9118515,2.9308623 0 0 0 -1.38715,-0.3904 z m -0.0699,6.312396 30.56093,17.760299 V -26.12465 L -514.95875,-8.3663467 -545.5197,-26.12665 v -35.518601 z"
           style="color:#000000;font-style:normal;font-variant:normal;font-weight:normal;font-stretch:normal;font-size:medium;line-height:normal;font-family:sans-serif;font-variant-ligatures:normal;font-variant-position:normal;font-variant-caps:normal;font-variant-numeric:normal;font-variant-alternates:normal;font-feature-settings:normal;text-indent:0;text-align:start;text-decoration:none;text-decoration-line:none;text-decoration-style:solid;text-decoration-color:#000000;letter-spacing:normal;word-spacing:normal;text-transform:none;writing-mode:lr-tb;direction:ltr;text-orientation:mixed;dominant-baseline:auto;baseline-shift:baseline;text-anchor:start;white-space:normal;shape-padding:0;clip-rule:nonzero;display:inline;overflow:visible;visibility:visible;opacity:1;isolation:auto;mix-blend-mode:normal;color-interpolation:sRGB;color-interpolation-filters:linearRGB;solid-color:#000000;solid-opacity:1;vector-effect:none;fill:#21aba5;fill-opacity:1;fill-rule:nonzero;stroke:none;stroke-width:3.17500019;stroke-linecap:round;stroke-linejoin:round;stroke-miterlimit:4;stroke-dasharray:none;stroke-dashoffset:0;stroke-opacity:1;paint-order:stroke fill markers;color-rendering:auto;image-rendering:auto;shape-rendering:auto;text-rendering:auto;enable-background:accumulate" />
      </g>
      <g
         id="g6660"
         transform="translate(-172.35714,278.19048)">
        <path
           id="path6656"
           d="m -519.66912,-32.288849 -5.84307,5.844 h 25.07044 a 2.9220001,2.9220001 0 0 0 0,-5.844 z"
           style="color:#000000;font-style:normal;font-variant:normal;font-weight:normal;font-stretch:normal;font-size:medium;line-height:normal;font-family:sans-serif;font-variant-ligatures:normal;font-variant-position:normal;font-variant-caps:normal;font-variant-numeric:normal;font-variant-alternates:normal;font-feature-settings:normal;text-indent:0;text-align:start;text-decoration:none;text-decoration-line:none;text-decoration-style:solid;text-decoration-color:#000000;letter-spacing:normal;word-spacing:normal;text-transform:none;writing-mode:lr-tb;direction:ltr;text-orientation:mixed;dominant-baseline:auto;baseline-shift:baseline;text-anchor:start;white-space:normal;shape-padding:0;clip-rule:nonzero;display:inline;overflow:visible;visibility:visible;opacity:1;isolation:auto;mix-blend-mode:normal;color-interpolation:sRGB;color-interpolation-filters:linearRGB;solid-color:#000000;solid-opacity:1;vector-effect:none;fill:#45eba5;fill-opacity:1;fill-rule:nonzero;stroke:none;stroke-width:3.17499971;stroke-linecap:round;stroke-linejoin:round;stroke-miterlimit:4;stroke-dasharray:none;stroke-dashoffset:0;stroke-opacity:1;color-rendering:auto;image-rendering:auto;shape-rendering:auto;text-rendering:auto;enable-background:accumulate"
           inkscape:connector-curvature="0" />
        <path
           inkscape:connector-curvature="0"
           id="path6658"
           d="m -529.50808,-61.355249 a 2.9213416,2.9213416 0 0 0 -2.0341,5.017 l 12.45256,12.452501 -12.45256,12.452599 a 2.9213416,2.9213416 0 1 0 4.1329,4.129201 l 14.51539,-14.515401 a 2.9213416,2.9213416 0 0 0 0,-4.1328 l -14.51539,-14.515401 a 2.9213416,2.9213416 0 0 0 -2.0988,-0.887699 z"
           style="color:#000000;font-style:normal;font-variant:normal;font-weight:normal;font-stretch:normal;font-size:medium;line-height:normal;font-family:sans-serif;font-variant-ligatures:normal;font-variant-position:normal;font-variant-caps:normal;font-variant-numeric:normal;font-variant-alternates:normal;font-feature-settings:normal;text-indent:0;text-align:start;text-decoration:none;text-decoration-line:none;text-decoration-style:solid;text-decoration-color:#000000;letter-spacing:normal;word-spacing:normal;text-transform:none;writing-mode:lr-tb;direction:ltr;text-orientation:mixed;dominant-baseline:auto;baseline-shift:baseline;text-anchor:start;white-space:normal;shape-padding:0;clip-rule:nonzero;display:inline;overflow:visible;visibility:visible;opacity:1;isolation:auto;mix-blend-mode:normal;color-interpolation:sRGB;color-interpolation-filters:linearRGB;solid-color:#000000;solid-opacity:1;vector-effect:none;fill:#45eba5;fill-opacity:1;fill-rule:nonzero;stroke:none;stroke-width:3.17500019;stroke-linecap:round;stroke-linejoin:round;stroke-miterlimit:4;stroke-dasharray:none;stroke-dashoffset:0;stroke-opacity:1;color-rendering:auto;image-rendering:auto;shape-rendering:auto;text-rendering:auto;enable-background:accumulate" />
      </g>
      <g
         id="g6676"
         transform="translate(-172.35714,278.19048)">
        <g
           id="g6672">
          <path
             inkscape:connector-curvature="0"
             style="color:#000000;font-style:normal;font-variant:normal;font-weight:normal;font-stretch:normal;font-size:medium;line-height:normal;font-family:sans-serif;font-variant-ligatures:normal;font-variant-position:normal;font-variant-caps:normal;font-variant-numeric:normal;font-variant-alternates:normal;font-feature-settings:normal;text-indent:0;text-align:start;text-decoration:none;text-decoration-line:none;text-decoration-style:solid;text-decoration-color:#000000;letter-spacing:normal;word-spacing:normal;text-transform:none;writing-mode:lr-tb;direction:ltr;text-orientation:mixed;dominant-baseline:auto;baseline-shift:baseline;text-anchor:start;white-space:normal;shape-padding:0;clip-rule:nonzero;display:inline;overflow:visible;visibility:visible;opacity:1;isolation:auto;mix-blend-mode:normal;color-interpolation:sRGB;color-interpolation-filters:linearRGB;solid-color:#000000;solid-opacity:1;vector-effect:none;fill:#21aba5;fill-opacity:1;fill-rule:nonzero;stroke:none;stroke-width:3.17499971;stroke-linecap:round;stroke-linejoin:round;stroke-miterlimit:4;stroke-dasharray:none;stroke-dashoffset:0;stroke-opacity:1;paint-order:stroke fill markers;color-rendering:auto;image-rendering:auto;shape-rendering:auto;text-rendering:auto;enable-background:accumulate"
             d="m -514.89008,-131.96866 a 2.9118515,2.9308623 0 0 0 -1.52426,0.3917 l -19.89585,11.5625 a 2.9118515,2.9308623 0 0 0 -1.45673,2.5388 v 23.125004 a 2.9118515,2.9308623 0 0 0 0.18924,1.02881 l 5.63388,-3.25861 v -19.203604 l 16.98527,-9.87 16.98619,9.87 v 19.203604 l 5.6348,3.25861 a 2.9118515,2.9308623 0 0 0 0.18734,-1.02881 v -23.125004 a 2.9118515,2.9308623 0 0 0 -1.4558,-2.5388 l -19.89678,-11.5625 a 2.9118515,2.9308623 0 0 0 -1.3873,-0.3917 z"
             id="path6662" />
          <path
             inkscape:connector-curvature="0"
             style="color:#000000;font-style:normal;font-variant:normal;font-weight:normal;font-stretch:normal;font-size:medium;line-height:normal;font-family:sans-serif;font-variant-ligatures:normal;font-variant-position:normal;font-variant-caps:normal;font-variant-numeric:normal;font-variant-alternates:normal;font-feature-settings:normal;text-indent:0;text-align:start;text-decoration:none;text-decoration-line:none;text-decoration-style:solid;text-decoration-color:#000000;letter-spacing:normal;word-spacing:normal;text-transform:none;writing-mode:lr-tb;direction:ltr;text-orientation:mixed;dominant-baseline:auto;baseline-shift:baseline;text-anchor:start;white-space:normal;shape-padding:0;clip-rule:nonzero;display:inline;overflow:visible;visibility:visible;opacity:1;isolation:auto;mix-blend-mode:normal;color-interpolation:sRGB;color-interpolation-filters:linearRGB;solid-color:#000000;solid-opacity:1;vector-effect:none;fill:#21aba5;fill-opacity:1;fill-rule:nonzero;stroke:none;stroke-width:3.17499971;stroke-linecap:round;stroke-linejoin:round;stroke-miterlimit:4;stroke-dasharray:none;stroke-dashoffset:0;stroke-opacity:1;paint-order:stroke fill markers;color-rendering:auto;image-rendering:auto;shape-rendering:auto;text-rendering:auto;enable-background:accumulate"
             d="m -566.01799,-99.511956 a 2.9118515,2.9308623 0 0 0 -1.52421,0.3918 l -19.89585,11.56251 a 2.9118515,2.9308623 0 0 0 -1.45673,2.5387 v 23.124998 a 2.9118515,2.9308623 0 0 0 1.45673,2.537899 l 18.43343,10.7124 v -6.768201 l -14.06704,-8.174598 v -19.740898 l 16.98522,-9.8699 14.11368,8.2012 5.83733,-3.3766 -18.49521,-10.74751 a 2.9118515,2.9308623 0 0 0 -1.38735,-0.3918 z"
             id="path6664" />
          <path
             inkscape:connector-curvature="0"
             style="color:#000000;font-style:normal;font-variant:normal;font-weight:normal;font-stretch:normal;font-size:medium;line-height:normal;font-family:sans-serif;font-variant-ligatures:normal;font-variant-position:normal;font-variant-caps:normal;font-variant-numeric:normal;font-variant-alternates:normal;font-feature-settings:normal;text-indent:0;text-align:start;text-decoration:none;text-decoration-line:none;text-decoration-style:solid;text-decoration-color:#000000;letter-spacing:normal;word-spacing:normal;text-transform:none;writing-mode:lr-tb;direction:ltr;text-orientation:mixed;dominant-baseline:auto;baseline-shift:baseline;text-anchor:start;white-space:normal;shape-padding:0;clip-rule:nonzero;display:inline;overflow:visible;visibility:visible;opacity:1;isolation:auto;mix-blend-mode:normal;color-interpolation:sRGB;color-interpolation-filters:linearRGB;solid-color:#000000;solid-opacity:1;vector-effect:none;fill:#21aba5;fill-opacity:1;fill-rule:nonzero;stroke:none;stroke-width:3.17499971;stroke-linecap:round;stroke-linejoin:round;stroke-miterlimit:4;stroke-dasharray:none;stroke-dashoffset:0;stroke-opacity:1;paint-order:stroke fill markers;color-rendering:auto;image-rendering:auto;shape-rendering:auto;text-rendering:auto;enable-background:accumulate"
             d="m -462.19425,-99.511956 a 2.9118515,2.9308623 0 0 0 -1.52421,0.3918 l -19.27591,11.20211 5.83641,3.3755 14.89526,-8.6547 16.98619,9.8699 v 19.740898 l -15.63409,9.085498 v 6.765401 a 2.9118515,2.9308623 0 0 0 0.10365,-0.058 l 19.89775,-11.5625 a 2.9118515,2.9308623 0 0 0 1.45483,-2.537801 v -23.124996 a 2.9118515,2.9308623 0 0 0 -1.45483,-2.5388 l -19.89775,-11.56251 a 2.9118515,2.9308623 0 0 0 -1.3873,-0.3918 z"
             id="path6666" />
          <path
             inkscape:connector-curvature="0"
             style="color:#000000;font-style:normal;font-variant:normal;font-weight:normal;font-stretch:normal;font-size:medium;line-height:normal;font-family:sans-serif;font-variant-ligatures:normal;font-variant-position:normal;font-variant-caps:normal;font-variant-numeric:normal;font-variant-alternates:normal;font-feature-settings:normal;text-indent:0;text-align:start;text-decoration:none;text-decoration-line:none;text-decoration-style:solid;text-decoration-color:#000000;letter-spacing:normal;word-spacing:normal;text-transform:none;writing-mode:lr-tb;direction:ltr;text-orientation:mixed;dominant-baseline:auto;baseline-shift:baseline;text-anchor:start;white-space:normal;shape-padding:0;clip-rule:nonzero;display:inline;overflow:visible;visibility:visible;opacity:1;isolation:auto;mix-blend-mode:normal;color-interpolation:sRGB;color-interpolation-filters:linearRGB;solid-color:#000000;solid-opacity:1;vector-effect:none;fill:#21aba5;fill-opacity:1;fill-rule:nonzero;stroke:none;stroke-width:3.17499971;stroke-linecap:round;stroke-linejoin:round;stroke-miterlimit:4;stroke-dasharray:none;stroke-dashoffset:0;stroke-opacity:1;paint-order:stroke fill markers;color-rendering:auto;image-rendering:auto;shape-rendering:auto;text-rendering:auto;enable-background:accumulate"
             d="m -569.00462,-38.844049 a 2.9118515,2.9308623 0 0 0 -0.77875,0.308999 l -19.89683,11.562501 a 2.9118515,2.9308623 0 0 0 -1.45672,2.538801 v 23.1250003 a 2.9118515,2.9308623 0 0 0 1.45672,2.537801 l 19.89683,11.5624977 a 2.9118515,2.9308623 0 0 0 2.91058,0 l 19.89775,-11.5624977 a 2.9118515,2.9308623 0 0 0 0.77778,-0.66460201 l -5.65379,-3.26999799 -16.47749,9.575199 -16.98435,-9.8709 V -22.74215 l 16.30827,-9.477299 z"
             id="path6668" />
          <path
             inkscape:connector-curvature="0"
             style="color:#000000;font-style:normal;font-variant:normal;font-weight:normal;font-stretch:normal;font-size:medium;line-height:normal;font-family:sans-serif;font-variant-ligatures:normal;font-variant-position:normal;font-variant-caps:normal;font-variant-numeric:normal;font-variant-alternates:normal;font-feature-settings:normal;text-indent:0;text-align:start;text-decoration:none;text-decoration-line:none;text-decoration-style:solid;text-decoration-color:#000000;letter-spacing:normal;word-spacing:normal;text-transform:none;writing-mode:lr-tb;direction:ltr;text-orientation:mixed;dominant-baseline:auto;baseline-shift:baseline;text-anchor:start;white-space:normal;shape-padding:0;clip-rule:nonzero;display:inline;overflow:visible;visibility:visible;opacity:1;isolation:auto;mix-blend-mode:normal;color-interpolation:sRGB;color-interpolation-filters:linearRGB;solid-color:#000000;solid-opacity:1;vector-effect:none;fill:#21aba5;fill-opacity:1;fill-rule:nonzero;stroke:none;stroke-width:3.17499971;stroke-linecap:round;stroke-linejoin:round;stroke-miterlimit:4;stroke-dasharray:none;stroke-dashoffset:0;stroke-opacity:1;paint-order:stroke fill markers;color-rendering:auto;image-rendering:auto;shape-rendering:auto;text-rendering:auto;enable-background:accumulate"
             d="m -460.9106,-37.293149 v 6.769201 l 13.39292,7.781798 v 19.7409023 l -16.9862,9.8709 -15.02174,-8.729901 -5.83733,3.375502 19.40327,11.2762977 a 2.9118515,2.9308623 0 0 0 2.91155,0 l 19.89678,-11.5624977 a 2.9118515,2.9308623 0 0 0 1.4558,-2.537801 V -24.433748 a 2.9118515,2.9308623 0 0 0 -1.4558,-2.538801 z"
             id="path6670" />
        </g>
        <path
           style="color:#000000;font-style:normal;font-variant:normal;font-weight:normal;font-stretch:normal;font-size:medium;line-height:normal;font-family:sans-serif;font-variant-ligatures:normal;font-variant-position:normal;font-variant-caps:normal;font-variant-numeric:normal;font-variant-alternates:normal;font-feature-settings:normal;text-indent:0;text-align:start;text-decoration:none;text-decoration-line:none;text-decoration-style:solid;text-decoration-color:#000000;letter-spacing:normal;word-spacing:normal;text-transform:none;writing-mode:lr-tb;direction:ltr;text-orientation:mixed;dominant-baseline:auto;baseline-shift:baseline;text-anchor:start;white-space:normal;shape-padding:0;clip-rule:nonzero;display:inline;overflow:visible;visibility:visible;opacity:1;isolation:auto;mix-blend-mode:normal;color-interpolation:sRGB;color-interpolation-filters:linearRGB;solid-color:#000000;solid-opacity:1;vector-effect:none;fill:#21aba5;fill-opacity:1;fill-rule:nonzero;stroke:none;stroke-width:3.17500019;stroke-linecap:round;stroke-linejoin:round;stroke-miterlimit:4;stroke-dasharray:none;stroke-dashoffset:0;stroke-opacity:1;color-rendering:auto;image-rendering:auto;shape-rendering:auto;text-rendering:auto;enable-background:accumulate"
           d="m -531.46275,-116.06384 -0.48112,0.27957 v 5.56039 a 2.9213415,2.9213415 0 0 0 0.0171,0 h 33.93644 a 2.9213415,2.9213415 0 0 0 0.0181,-5.2e-4 v -5.55987 l -0.48109,-0.27957 z"
           id="path6674"
           inkscape:connector-curvature="0" />
      </g>
    </g>
  </g>
</svg>
